<svg xmlns="http://www.w3.org/2000/svg" style="display:none">

  <!-- AVIATION: ROUTE / MAP (paper plane over map) -->
  <symbol id="i-map" viewBox="0 0 24 24">
    <path d="M3 6l6-2 6 2 6-2v14l-6 2-6-2-6 2V6z"/>
    <path d="M9 4v14"/>
    <path d="M15 6v14"/>
    <path d="M11 12l10-4-4 10-2-4-4-2z"/>
  </symbol>

  <!-- AVIATION: CHECKLIST (clipboard + tick) -->
  <symbol id="i-checklist" viewBox="0 0 24 24">
    <path d="M9 4h6l1 2h3v14a2 2 0 0 1-2 2H7a2 2 0 0 1-2-2V6h3l1-2z"/>
    <path d="M9 4l.8 2h4.4L15 4"/>
    <path d="M8 12l2 2 5-5"/>
    <path d="M8 16h8"/>
  </symbol>

  <!-- AVIATION: FUEL (pump + droplet) -->
  <symbol id="i-fuel" viewBox="0 0 24 24">
    <path d="M6 21V6a2 2 0 0 1 2-2h7a2 2 0 0 1 2 2v15"/>
    <path d="M6 12h11"/>
    <path d="M18 8l2 2v9a2 2 0 0 1-2 2h-1"/>
    <path d="M20 10h-2"/>
    <path d="M12 8c1.4 1.6 2.1 2.7 2.1 3.7A2.1 2.1 0 0 1 12 14a2.1 2.1 0 0 1-2.1-2.3c0-1 .7-2.1 2.1-3.7z"/>
  </symbol>

  <!-- AVIATION: PERFORMANCE (trend + altitude bars) -->
  <symbol id="i-performance" viewBox="0 0 24 24">
    <path d="M4 19V5"/>
    <path d="M4 19h16"/>
    <path d="M7 16V10"/>
    <path d="M11 16V8"/>
    <path d="M15 16V12"/>
    <path d="M7 12l4-3 4 2 4-6"/>
  </symbol>

  <!-- AVIATION: SETTINGS (simple gear) -->
  <symbol id="i-settings" viewBox="0 0 24 24">
    <path d="M12 15.5a3.5 3.5 0 1 0 0-7 3.5 3.5 0 0 0 0 7z"/>
    <path d="M19.4 15a7.9 7.9 0 0 0 .1-2l2-1.2-2-3.5-2.3.7a8.2 8.2 0 0 0-1.7-1L15 5h-4l-.5 2.1a8.2 8.2 0 0 0-1.7 1L6.5 7.4l-2 3.5 2 1.2a7.9 7.9 0 0 0 .1 2l-2 1.2 2 3.5 2.3-.7a8.2 8.2 0 0 0 1.7 1L11 21h4l.5-2.1a8.2 8.2 0 0 0 1.7-1l2.3.7 2-3.5-2-1.2z"/>
  </symbol>

  <!-- OPTIONAL: PLANE -->
  <symbol id="i-plane" viewBox="0 0 24 24">
    <path d="M2 16l9-3V4.5c0-1 .8-1.5 1-1.5s1 .5 1 1.5V13l9 3-1 2-8-2-8 2-1-2z"/>
    <path d="M11 19v2"/>
    <path d="M13 19v2"/>
  </symbol>

</svg>
