<svg xmlns="http://www.w3.org/2000/svg" style="display:none">

  <!-- MAP -->
  <symbol id="i-map" viewBox="0 0 24 24">
    <circle cx="12" cy="12" r="9"/>
    <path d="M3 12h18"/>
    <path d="M12 3c-3 4-3 14 0 18"/>
    <path d="M12 3c3 4 3 14 0 18"/>
  </symbol>

  <!-- CHECKLIST -->
  <symbol id="i-checklist" viewBox="0 0 24 24">
    <rect x="4" y="4" width="16" height="16" rx="3"/>
    <path d="M8 12l2.5 2.5L16 9"/>
  </symbol>

  <!-- FUEL -->
  <symbol id="i-fuel" viewBox="0 0 24 24">
    <rect x="5" y="4" width="10" height="16" rx="2"/>
    <path d="M15 7h2l2 2v8a2 2 0 0 1-2 2h-2"/>
    <path d="M7 9h6"/>
  </symbol>

  <!-- PERFORMANCE -->
  <symbol id="i-performance" viewBox="0 0 24 24">
    <path d="M4 18V6"/>
    <path d="M4 18h16"/>
    <path d="M7 14l3-3 3 2 4-6"/>
  </symbol>

  <!-- SETTINGS -->
  <symbol id="i-settings" viewBox="0 0 24 24">
    <circle cx="12" cy="12" r="3"/>
    <path d="M19 12l2-1-2-4-2 1a7 7 0 0 0-2-1l-1-2h-4l-1 2a7 7 0 0 0-2 1l-2-1-2 4 2 1a7 7 0 0 0 0 2l-2 1 2 4 2-1a7 7 0 0 0 2 1l1 2h4l1-2a7 7 0 0 0 2-1l2 1 2-4-2-1a7 7 0 0 0 0-2z"/>
  </symbol>

</svg>