<svg xmlns="http://www.w3.org/2000/svg" style="display:none">

  <!-- MAP / ROUTE (clean aviation map) -->
  <symbol id="i-map" viewBox="0 0 24 24">
    <path d="M3 6l6-2 6 2 6-2v14l-6 2-6-2-6 2V6z"/>
    <path d="M9 4v14"/>
    <path d="M15 6v14"/>
    <path d="M10 13l8-3-3 7-2-3-3-1z"/>
  </symbol>

  <!-- CHECKLIST (technical clipboard) -->
  <symbol id="i-checklist" viewBox="0 0 24 24">
    <rect x="6" y="4" width="12" height="16" rx="2"/>
    <path d="M9 4h6"/>
    <path d="M9 11l2 2 4-4"/>
    <path d="M9 16h6"/>
  </symbol>

  <!-- FUEL (aviation fuel pump) -->
  <symbol id="i-fuel" viewBox="0 0 24 24">
    <rect x="6" y="4" width="9" height="16" rx="2"/>
    <path d="M6 11h9"/>
    <path d="M15 7h2l2 2v7a2 2 0 0 1-2 2h-2"/>
    <path d="M11 7.5c1 1.2 1.5 2 1.5 2.8A1.5 1.5 0 0 1 11 12a1.5 1.5 0 0 1-1.5-1.7c0-.8.5-1.6 1.5-2.8z"/>
  </symbol>

  <!-- PERFORMANCE (clean chart) -->
  <symbol id="i-performance" viewBox="0 0 24 24">
    <path d="M4 19V6"/>
    <path d="M4 19h16"/>
    <path d="M7 15l4-4 3 2 4-6"/>
  </symbol>

  <!-- SETTINGS (precise gear) -->
  <symbol id="i-settings" viewBox="0 0 24 24">
    <circle cx="12" cy="12" r="3"/>
    <path d="M12 5v2"/>
    <path d="M12 17v2"/>
    <path d="M5 12h2"/>
    <path d="M17 12h2"/>
    <path d="M7.5 7.5l1.5 1.5"/>
    <path d="M15 15l1.5 1.5"/>
    <path d="M7.5 16.5l1.5-1.5"/>
    <path d="M15 9l1.5-1.5"/>
  </symbol>

</svg>